<?xml version="1.0" encoding="utf-8"?>
<!-- Generator: Adobe Illustrator 26.5.0, SVG Export Plug-In . SVG Version: 6.00 Build 0)  -->
<svg version="1.1" id="レイヤー_1" xmlns="http://www.w3.org/2000/svg" xmlns:xlink="http://www.w3.org/1999/xlink" x="0px"
	 y="0px" viewBox="0 0 500 286.8" style="enable-background:new 0 0 500 286.8;" xml:space="preserve">
<style type="text/css">
	.st0{fill:#D9DADA;}
	.st1{fill:#ECECED;}
	.st2{fill:#FFFFFF;}
	.st3{fill:#9C9C9D;}
	.st4{fill:#B2B2B3;}
	.st5{fill:#EFEFEF;}
	.st6{fill:#C6C7C8;}
	.st7{fill:#717071;}
	.st8{fill:#4D4D4D;}
</style>
<g>
	<g>
		<g>
			<path class="st0" d="M267.5,215.6c3.1,1.9,2.2,24.3-0.7,26l-16.3,9.3c-2.9,1.7-6.1,0.8-9-0.9l-7.6-4.4c-2.9-1.7-5-23.5-2.1-25.2
				l16.9-2.6c2.9-1.7,7.7-1.7,10.6,0L267.5,215.6z"/>
		</g>
		<g>
			<path class="st1" d="M266.7,215.1c2.9,1.7,2.9,4.4,0,6.1l-16.3,9.3c-2.9,1.7-6.1,0.8-9-0.9l-7.6-4.4c-2.9-1.7-4.5-3.5-1.6-5.2
				l16.3-9.3c2.9-1.7,7.7-1.7,10.6,0L266.7,215.1z"/>
		</g>
		<g>
			<path class="st2" d="M232.2,220.2l16.3-9.3c2.9-1.7,7.7-1.7,10.6,0l7.6,4.4c1.4,0.8,2.2,1.9,2.2,3c0-1.1-0.7-2.3-2.2-3.1
				l-7.6-4.4c-2.9-1.7-7.7-1.7-10.6,0l-16.3,9.3c-1.1,0.7-1.6,1.3-1.6,2C230.6,221.4,231.1,220.8,232.2,220.2z"/>
		</g>
		<g>
			<path class="st3" d="M211.8,212.3c-21-17.1-21-44.7,0-61.8c21-17.1,55-17.1,76,0c21,17.1,21,44.7,0,61.8
				C266.8,229.4,232.8,229.4,211.8,212.3z"/>
		</g>
		<g>
			<path class="st3" d="M287.8,212.1c-21,17.1-55,17.1-76,0c-10.4-8.5-15.7-19.6-15.7-30.8c0,11.2,5.2,22.5,15.7,31
				c21,17.1,55,17.1,76,0c10.5-8.6,15.8-19.8,15.7-31C303.5,192.5,298.2,203.6,287.8,212.1z"/>
		</g>
		<g>
			<path class="st4" d="M203.8,202.3c-25.4-20.7-25.4-54.1,0-74.8c25.4-20.7,66.5-20.6,91.9,0c25.4,20.6,25.4,54.1,0,74.8
				C270.4,222.9,229.2,222.9,203.8,202.3z"/>
		</g>
		<g>
			<path class="st3" d="M83.6,116.6c-8.9-5.1-8.9-13.5,0-18.6c8.9-5.1,23.3-5.1,32.2,0c8.9,5.1,8.9,13.5,0,18.6
				C106.9,121.8,92.5,121.8,83.6,116.6z"/>
		</g>
		<g>
			<rect x="76.9" y="52.3" class="st3" width="45.5" height="55"/>
		</g>
		<g>
			<path class="st0" d="M83.6,61.6c-8.9-5.1-8.9-13.5,0-18.6c8.9-5.1,23.3-5.1,32.2,0c8.9,5.1,8.9,13.5,0,18.6
				C106.9,66.7,92.5,66.7,83.6,61.6z"/>
		</g>
		<g>
			<path class="st3" d="M383.8,98c8.9-5.1,23.3-5.1,32.2,0c8.9,5.1,8.9,13.5,0,18.6c-8.9,5.1-23.3,5.1-32.2,0S374.9,103.2,383.8,98z
				"/>
		</g>
		<g>
			<rect x="377.1" y="52.3" class="st3" width="45.5" height="55"/>
		</g>
		<g>
			<path class="st0" d="M383.8,43c8.9-5.1,23.3-5.1,32.2,0c8.9,5.1,8.9,13.5,0,18.6c-8.9,5.1-23.3,5.1-32.2,0
				C374.9,56.5,374.9,48.2,383.8,43z"/>
		</g>
		<g>
			<polygon class="st4" points="241.4,147.4 209.2,172.1 100.2,90.1 100.2,79.3 			"/>
		</g>
		<g>
			<polygon class="st4" points="209.2,175.8 241.4,200.4 120.4,251.2 100.2,245.6 			"/>
		</g>
		<g>
			<polygon class="st4" points="258.3,200.4 290.4,175.8 399.4,245.6 379.3,251.2 			"/>
		</g>
		<g>
			<polygon class="st4" points="290.4,172.1 258.3,147.4 399.4,79.3 399.4,90.1 			"/>
		</g>
		<g>
			<polygon class="st1" points="241.4,130.5 209.2,149.1 100.2,79.3 120.4,67.6 			"/>
		</g>
		<g>
			<polygon class="st1" points="209.2,158.9 241.4,177.5 120.4,240.3 100.2,228.7 			"/>
		</g>
		<g>
			<polygon class="st1" points="258.3,177.5 290.4,158.9 399.4,228.7 379.3,240.3 			"/>
		</g>
		<g>
			<polygon class="st1" points="290.4,149.1 258.3,130.5 379.3,67.6 399.4,79.3 			"/>
		</g>
		<g>
			<path class="st0" d="M198.4,187.3c-28.4-16.4-28.4-43,0-59.4c28.4-16.4,74.5-16.4,102.9,0c28.4,16.4,28.4,43,0,59.4
				C272.8,203.7,226.8,203.7,198.4,187.3z"/>
		</g>
		<g>
			<path class="st1" d="M198.4,183.7c-28.4-16.4-28.4-43,0-59.4c28.4-16.4,74.5-16.4,102.9,0c28.4,16.4,28.4,43,0,59.4
				C272.8,200.1,226.8,200.1,198.4,183.7z"/>
		</g>
		<g>
			<path class="st0" d="M301.8,183.1c-28.4,16.4-74.5,16.4-102.9,0c-23.7-13.7-27.6-34.5-11.7-50.5c-16.5,16.1-12.8,37.2,11.2,51.1
				c28.4,16.4,74.5,16.4,102.9,0c4.7-2.7,8.6-5.7,11.7-8.9C309.9,177.8,306.2,180.5,301.8,183.1z"/>
		</g>
		<g>
			<path class="st0" d="M207.3,178.5c-23.5-13.6-23.5-35.6,0-49.1c23.5-13.6,61.6-13.6,85.1,0c23.5,13.6,23.5,35.6,0,49.1
				C268.9,192.1,230.8,192.1,207.3,178.5z"/>
		</g>
		<g>
			<rect x="76.9" y="220.6" class="st3" width="45.5" height="55"/>
		</g>
		<g>
			<path class="st3" d="M115.8,283c-8.9,5.1-23.3,5.1-32.2,0c-8.9-5.1-8.9-13.5,0-18.6c8.9-5.1,23.3-5.1,32.2,0
				C124.7,269.5,124.7,277.8,115.8,283z"/>
		</g>
		<g>
			<path class="st0" d="M115.8,228c-8.9,5.1-23.3,5.1-32.2,0c-8.9-5.1-8.9-13.5,0-18.6c8.9-5.1,23.3-5.1,32.2,0
				C124.7,214.5,124.7,222.8,115.8,228z"/>
		</g>
		<g>
			<rect x="377.1" y="220.6" class="st3" width="45.5" height="55"/>
		</g>
		<g>
			<path class="st3" d="M416,264.4c8.9,5.1,8.9,13.5,0,18.6c-8.9,5.1-23.3,5.1-32.2,0c-8.9-5.1-8.9-13.5,0-18.6
				C392.7,259.3,407.1,259.3,416,264.4z"/>
		</g>
		<g>
			<path class="st0" d="M416,209.4c8.9,5.1,8.9,13.5,0,18.6c-8.9,5.1-23.3,5.1-32.2,0c-8.9-5.1-8.9-13.5,0-18.6
				C392.7,204.2,407.1,204.2,416,209.4z"/>
		</g>
		<g>
			<path class="st5" d="M233.5,235.3c0-2.7,2.2-3.6,4.8-2c2.7,1.5,4.8,4.9,4.8,7.6c0,2.7-2.2,3.6-4.8,2
				C235.7,241.4,233.5,238,233.5,235.3z"/>
		</g>
		<g>
			<path class="st6" d="M233.4,235.3c0-2.7,2.2-3.6,4.8-2c2.7,1.5,4.8,4.9,4.8,7.6c0,2.7-2.2,3.6-4.8,2
				C235.5,241.4,233.4,238,233.4,235.3z"/>
		</g>
		<g>
			<path class="st7" d="M235.9,236.8c0-1.3,1-1.7,2.3-1c1.3,0.7,2.3,2.4,2.3,3.6c0,1.3-1,1.7-2.3,1
				C236.9,239.7,235.9,238,235.9,236.8z"/>
		</g>
		<g>
			<path class="st4" d="M239.1,242.9c-2.7-1.5-4.8-4.9-4.8-7.6c0-1.6,0.8-2.6,2-2.7c-1.7-0.3-2.9,0.8-2.9,2.7c0,2.7,2.2,6.1,4.8,7.6
				c1.1,0.6,2.1,0.8,2.9,0.7C240.4,243.5,239.8,243.3,239.1,242.9z"/>
		</g>
	</g>
	<g>
		<g>
			<path class="st8" d="M470.7,16.9c-39.1-22.5-102.4-22.6-141.4,0c-39.1,22.5-39.1,59.1,0,81.7c39.1,22.5,102.4,22.5,141.4,0
				C509.8,76,509.8,39.5,470.7,16.9z M457,90.7c-31.5,18.2-82.6,18.2-114.1,0c-31.5-18.2-31.5-47.7,0-65.9
				c31.5-18.2,82.6-18.2,114.1,0C488.5,43,488.5,72.5,457,90.7z"/>
		</g>
		<g>
			<path class="st2" d="M388.1,49.6c0-3.8,5.3-25.3,11.9-25.3c6.6,0,11.9,21.5,11.9,25.3c0,3.8-5.3,6.9-11.9,6.9
				C393.4,56.4,388.1,53.4,388.1,49.6z"/>
		</g>
	</g>
	<g>
		<g>
			<path class="st8" d="M470.7,179.5c-39.1-22.5-102.4-22.6-141.4,0c-39.1,22.5-39.1,59.1,0,81.7c39.1,22.5,102.4,22.5,141.4,0
				C509.8,238.6,509.8,202.1,470.7,179.5z M457,253.3c-31.5,18.2-82.6,18.2-114.1,0c-31.5-18.2-31.5-47.7,0-65.9
				c31.5-18.2,82.6-18.2,114.1,0C488.5,205.6,488.5,235.1,457,253.3z"/>
		</g>
		<g>
			<path class="st2" d="M388.1,212.2c0-3.8,5.3-25.3,11.9-25.3c6.6,0,11.9,21.5,11.9,25.3c0,3.8-5.3,6.9-11.9,6.9
				C393.4,219,388.1,216,388.1,212.2z"/>
		</g>
	</g>
	<g>
		<g>
			<path class="st8" d="M170.7,16.9C131.7-5.6,68.3-5.6,29.3,16.9C-9.8,39.5-9.8,76,29.3,98.6c39.1,22.5,102.4,22.5,141.4,0
				C209.8,76,209.8,39.5,170.7,16.9z M157,90.7c-31.5,18.2-82.6,18.2-114.1,0C11.5,72.5,11.5,43,43,24.8
				c31.5-18.2,82.6-18.2,114.1,0C188.5,43,188.5,72.5,157,90.7z"/>
		</g>
		<g>
			<path class="st2" d="M88.1,49.6c0-3.8,5.3-25.3,11.9-25.3c6.6,0,11.9,21.5,11.9,25.3c0,3.8-5.3,6.9-11.9,6.9
				C93.4,56.4,88.1,53.4,88.1,49.6z"/>
		</g>
	</g>
	<g>
		<g>
			<path class="st8" d="M170.7,179.5c-39.1-22.5-102.4-22.6-141.4,0c-39.1,22.5-39.1,59.1,0,81.7c39.1,22.5,102.4,22.5,141.4,0
				C209.8,238.6,209.8,202.1,170.7,179.5z M157,253.3c-31.5,18.2-82.6,18.2-114.1,0c-31.5-18.2-31.5-47.7,0-65.9
				c31.5-18.2,82.6-18.2,114.1,0C188.5,205.6,188.5,235.1,157,253.3z"/>
		</g>
		<g>
			<path class="st2" d="M88.1,212.2c0-3.8,5.3-25.3,11.9-25.3c6.6,0,11.9,21.5,11.9,25.3c0,3.8-5.3,6.9-11.9,6.9
				C93.4,219,88.1,216,88.1,212.2z"/>
		</g>
	</g>
</g>
</svg>
