<?xml version="1.0" encoding="utf-8"?>
<!-- Generator: Adobe Illustrator 26.5.0, SVG Export Plug-In . SVG Version: 6.00 Build 0)  -->
<svg version="1.1" id="レイヤー_1" xmlns="http://www.w3.org/2000/svg" xmlns:xlink="http://www.w3.org/1999/xlink" x="0px"
	 y="0px" viewBox="0 0 500 409.3" style="enable-background:new 0 0 500 409.3;" xml:space="preserve">
<style type="text/css">
	.st0{fill:#FCF000;}
	.st1{fill:#FFC800;}
	.st2{fill:#E7E7E7;}
	.st3{fill:#EBEBEB;}
	.st4{fill:#D2D2D2;}
	.st5{fill:#B4B4B4;}
	.st6{fill:#FAFAFA;}
	.st7{fill:#006EDC;}
	.st8{fill:#0082F0;}
	.st9{fill:#A6E5F7;}
	.st10{fill:#B1B1B1;}
	.st11{fill:#FDF666;}
	.st12{fill:#FFAFBE;}
	.st13{fill:#AFD264;}
	.st14{fill:#EE755E;}
</style>
<g>
	<g>
		<g>
			<path class="st0" d="M184.2,341.5c0,27.2-22,49.2-49.2,49.2c-27.2,0-49.2-22-49.2-49.2c0-27.2,22-49.2,49.2-49.2
				C162.1,292.3,184.2,314.3,184.2,341.5z"/>
			
				<ellipse transform="matrix(0.1574 -0.9875 0.9875 0.1574 -29.671 648.2226)" class="st1" cx="365" cy="341.5" rx="49.2" ry="49.2"/>
		</g>
	</g>
	<g>
		<path class="st0" d="M194.1,353.5c0,30.8,25,55.9,55.9,55.9V297.6C219.2,297.6,194.1,322.6,194.1,353.5z"/>
		<path class="st0" d="M250,297.6v111.7c30.9,0,55.9-25,55.9-55.9C305.9,322.6,280.9,297.6,250,297.6z"/>
	</g>
	<polygon class="st2" points="250,190.3 250,190.3 250,190.3 	"/>
	<g>
		<g>
			<path class="st3" d="M250,190.3L250,190.3l-9.1-9.1l-9.1-9.1C102.2,177.5,0,238.6,0,286.5c0,4.1,0.8,8.1,2.2,12.1
				c8.2,22.4,38.7,42.2,83.2,56.3c44,14,101.6,22.5,164.6,22.5l0,0V190.3L250,190.3z"/>
			<path class="st4" d="M268.2,172.1l-9.1,9.1l-9.1,9.1v187.1c63,0,120.6-8.5,164.6-22.5c44.5-14.2,75-34,83.2-56.3
				c1.5-4,2.2-8,2.2-12.1C500,238.6,397.8,177.5,268.2,172.1z"/>
		</g>
		<path class="st5" d="M497.8,298.6L259.1,181.2l-9.1,9.1l164.6,164.6C459.1,340.8,489.6,321,497.8,298.6z"/>
		<path class="st6" d="M231.8,172.1C102.2,177.5,0,238.6,0,286.5c0,4.1,0.8,8.1,2.2,12.1l238.7-117.4L231.8,172.1z"/>
		<path class="st4" d="M85.4,354.9c44,14,101.6,22.5,164.6,22.5V190.3L85.4,354.9z"/>
	</g>
	<path class="st0" d="M398.4,203.5c-8.6,0-15.6,7-15.6,15.6c0,8.6,7,15.6,15.6,15.6c8.6,0,15.6-7,15.6-15.6
		C414,210.5,407,203.5,398.4,203.5z"/>
	<path class="st0" d="M101.6,203.5c8.6,0,15.6,7,15.6,15.6c0,8.6-7,15.6-15.6,15.6c-8.6,0-15.6-7-15.6-15.6
		C86,210.5,93,203.5,101.6,203.5z"/>
	<path class="st7" d="M250,209.8c-84.5,0-152.9-6.2-152.9-27.6v69.7c0,25.2,68.5,45.7,152.9,45.7c84.5,0,152.9-20.5,152.9-45.7
		v-69.7C402.9,203.6,334.5,209.8,250,209.8z"/>
	<g>
		<path class="st8" d="M96.4,180.7c0,24.1,68.8,43.6,153.6,43.6v-87.1C165.2,137.2,96.4,156.7,96.4,180.7z"/>
		<path class="st8" d="M250,137.2v87.1c84.8,0,153.6-19.5,153.6-43.6C403.6,156.7,334.8,137.2,250,137.2z"/>
	</g>
	<g>
		<path class="st9" d="M250,56.1c-68.1,0-123.4,49.9-123.4,111.6c0,15.1,55.2,33.2,123.4,33.2s123.4-16.1,123.4-33.2
			C373.4,106,318.1,56.1,250,56.1z"/>
		<g>
			<path class="st10" d="M244.1,29.8v36.6c0,3.3,2.7,5.9,5.9,5.9V23.9C246.7,23.9,244.1,26.5,244.1,29.8z"/>
			<path class="st10" d="M250,23.9v48.4c3.3,0,5.9-2.7,5.9-5.9V29.8C255.9,26.5,253.3,23.9,250,23.9z"/>
		</g>
	</g>
	<path class="st6" d="M201.2,111.6c0,9.6-7.8,17.4-17.4,17.4c-9.6,0-17.4-7.8-17.4-17.4s7.8-17.4,17.4-17.4
		C193.4,94.2,201.2,102,201.2,111.6z"/>
	<path class="st11" d="M250,238.4c-12.5,0-22.7,10.2-22.7,22.7c0,12.5,10.2,22.7,22.7,22.7c12.5,0,22.7-10.2,22.7-22.7
		C272.7,248.5,262.5,238.4,250,238.4z"/>
	<path class="st12" d="M358.1,224.6c-12.5,0-22.7,10.2-22.7,22.7c0,12.5,10.2,22.7,22.7,22.7c12.5,0,22.7-10.2,22.7-22.7
		C380.8,234.7,370.6,224.6,358.1,224.6z"/>
	<path class="st13" d="M141.9,224.6c12.5,0,22.7,10.2,22.7,22.7c0,12.5-10.2,22.7-22.7,22.7c-12.5,0-22.7-10.2-22.7-22.7
		C119.2,234.7,129.4,224.6,141.9,224.6z"/>
	<path class="st14" d="M250,0c-11.9,0-21.5,9.6-21.5,21.5c0,11.9,9.6,21.5,21.5,21.5c11.9,0,21.5-9.6,21.5-21.5
		C271.5,9.6,261.9,0,250,0z"/>
</g>
</svg>
